<svg version="1.1" id="Layer_1" xmlns="http://www.w3.org/2000/svg" xmlns:xlink="http://www.w3.org/1999/xlink" x="0px" y="0px"
	 width="100%" viewBox="0 0 300 251" enable-background="new 0 0 300 251" xml:space="preserve">
<path fill="#FDFDFD" opacity="1.000000" stroke="none" 
	d="
M150.000000,252.000000 
	C146.307098,252.000000 142.614182,252.000000 138.575287,251.641251 
	C138.905533,250.703796 140.166168,250.130722 140.171799,249.545547 
	C140.286682,237.618835 140.258011,225.690750 140.258011,213.776428 
	C136.640274,213.776428 133.576263,213.776428 130.000000,213.776428 
	C130.000000,226.771332 130.000000,239.385666 130.000000,252.000000 
	C126.969406,252.000000 123.938812,252.000000 120.598480,251.606277 
	C120.886009,249.749908 121.982338,248.293671 122.001213,246.823593 
	C122.146210,235.532578 122.082016,224.238861 122.082603,212.945984 
	C122.082840,208.363907 122.082649,203.781845 122.082649,199.357452 
	C118.403732,199.357452 115.358276,199.357452 112.110306,199.357452 
	C112.110306,208.363541 112.124649,216.984299 112.106308,225.604965 
	C112.087593,234.403351 112.036766,243.201660 112.000000,252.000000 
	C105.312355,252.000000 98.624710,252.000000 91.612244,251.660736 
	C100.405174,248.930618 105.338371,243.270081 105.719460,234.447098 
	C102.677147,234.088257 99.610260,233.726532 96.491478,233.358673 
	C96.133652,234.414871 95.874611,235.185715 95.611465,235.955154 
	C94.155159,240.213593 91.739418,243.333603 86.750778,243.344940 
	C81.786407,243.356216 78.719879,240.376419 77.903854,236.032486 
	C76.846779,230.405411 76.079689,224.506317 76.596870,218.853226 
	C77.329926,210.840500 80.975334,206.773422 86.027191,206.512268 
	C92.825546,206.160797 94.936272,211.096161 96.419350,216.640320 
	C99.744064,216.197800 102.791695,215.792175 105.818916,215.389252 
	C104.902992,206.338303 100.159683,200.755630 92.056648,198.778549 
	C82.970192,196.561508 74.744713,199.712036 69.903839,207.263519 
	C59.896030,222.875153 65.229637,242.600998 82.000000,252.000000 
	C55.068848,252.000000 28.137693,252.000000 1.000000,252.000000 
	C1.000000,221.979416 1.000000,191.958374 1.351654,161.559708 
	C3.124510,164.169327 4.250621,167.346130 6.024350,170.106873 
	C10.642449,177.294769 18.642395,180.226654 27.364428,178.295990 
	C35.613277,176.470047 40.394650,171.058563 41.772903,161.579987 
	C38.722641,161.198914 35.670925,160.817642 32.468761,160.417587 
	C32.094028,161.314240 31.720848,162.029572 31.490191,162.788239 
	C30.106495,167.339417 27.488636,170.564194 22.356968,170.462585 
	C16.964260,170.355774 14.429166,166.587509 13.169850,162.028519 
	C11.183188,154.836380 11.092898,147.590134 13.760649,140.467194 
	C15.290050,136.383667 17.897718,133.609985 22.519184,133.580154 
	C27.170027,133.550125 29.800142,136.253799 31.174429,140.460754 
	C31.523098,141.528107 31.957026,142.567596 32.397030,143.740524 
	C35.711514,143.265701 38.745567,142.831039 41.777325,142.396713 
	C40.250656,132.698975 35.689369,127.565231 27.332533,125.752434 
	C18.320271,123.797455 10.430765,126.833916 5.752784,134.391968 
	C3.880756,137.416534 2.567565,140.786987 1.000000,144.000000 
	C1.000000,96.418243 1.000000,48.836487 1.000000,1.000000 
	C35.020470,1.000000 69.041580,1.000000 103.298630,1.257762 
	C102.000900,3.892458 99.247452,6.216970 99.142662,8.655311 
	C98.664330,19.785194 98.872482,30.947456 98.955650,42.097176 
	C98.988991,46.567593 101.480911,49.483326 105.857811,49.821903 
	C111.111702,50.228321 116.421036,49.917938 121.507820,49.917938 
	C121.849770,49.217785 122.104652,48.936562 122.108612,48.651855 
	C122.173317,43.995319 122.198532,39.338257 122.248245,34.681484 
	C122.330399,26.986675 124.807076,24.433180 132.402618,24.340788 
	C137.474686,24.279089 142.548096,24.329063 147.933044,24.329063 
	C147.933044,19.553461 147.731171,15.569676 147.986069,11.615333 
	C148.279922,7.056294 146.880875,3.497638 143.000000,1.000000 
	C148.022095,1.000000 153.044189,1.000000 158.331757,1.282696 
	C157.084732,3.613510 154.527161,5.537813 154.266953,7.734288 
	C153.631683,13.096440 154.059784,18.584572 154.059784,24.321800 
	C157.895096,24.321800 161.200577,24.322685 164.506058,24.321650 
	C178.771088,24.317179 179.623413,25.156008 179.610046,39.177708 
	C179.606766,42.618172 179.609558,46.058647 179.609558,49.967278 
	C184.622131,49.967278 189.076401,50.003571 193.529846,49.958759 
	C200.193481,49.891716 202.965317,47.184738 203.002167,40.611858 
	C203.052521,31.632627 202.814835,22.646696 203.093796,13.675864 
	C203.244659,8.823860 202.620987,4.501385 199.000000,1.000000 
	C232.946243,1.000000 266.892487,1.000000 301.000000,1.000000 
	C301.000000,59.020794 301.000000,117.041740 300.630371,175.309631 
	C300.260773,159.170425 300.260773,142.784271 300.260773,126.326096 
	C296.183990,126.326096 293.137451,126.326096 289.738586,126.326096 
	C289.738586,132.054581 289.738586,137.453156 289.738586,143.096542 
	C288.891815,142.877960 288.397614,142.858948 288.022766,142.637695 
	C279.649231,137.695374 271.452057,140.081024 268.556122,149.109680 
	C267.085388,153.694962 266.824707,158.944946 267.215576,163.797913 
	C268.304047,177.311203 279.511475,183.190994 290.414337,175.549927 
	C292.385315,178.092270 292.385315,178.092270 301.000000,178.000000 
	C301.000000,202.595459 301.000000,227.190933 301.000000,252.000000 
	C275.312836,252.000000 249.625076,252.000000 223.634644,251.676239 
	C230.610336,249.472763 234.180908,245.639938 234.801987,238.679611 
	C232.065231,238.371262 229.319260,238.061859 226.696564,237.766357 
	C224.210815,243.451904 222.751358,244.773758 219.330856,244.203674 
	C214.880066,243.461868 214.308517,239.787384 213.953384,236.291092 
	C213.669769,233.498688 213.699402,230.629730 213.986130,227.835388 
	C214.352142,224.268158 215.222794,220.587006 219.633759,220.147583 
	C223.772308,219.735291 225.372681,222.749054 226.332855,226.204971 
	C226.394455,226.426682 226.860565,226.536011 227.304871,226.794342 
	C229.759674,226.419083 232.353088,226.022614 234.939316,225.627258 
	C234.078110,219.163483 230.057312,214.561691 224.228745,213.161285 
	C217.280258,211.491821 210.816895,213.797516 207.019943,219.300217 
	C199.352219,230.412613 203.310379,244.825790 216.000000,252.000000 
	C203.312439,252.000000 190.624878,252.000000 177.625504,251.608551 
	C177.933640,250.597229 179.089798,249.980240 179.093185,249.357010 
	C179.144699,239.902451 179.353134,230.430969 178.860794,220.998108 
	C178.583313,215.681671 174.214279,212.298050 168.834747,212.906326 
	C165.340942,213.301392 161.985077,214.916306 158.532684,215.995529 
	C157.312958,212.887360 155.579834,212.496597 148.223007,214.168533 
	C148.223007,225.673889 148.177094,237.262848 148.300308,248.850021 
	C148.311523,249.905914 149.407669,250.950287 150.000000,252.000000 
M129.485870,105.009521 
	C133.144989,105.000587 136.806854,105.077164 140.462494,104.959915 
	C144.538574,104.829178 147.297089,102.419899 147.647400,98.626236 
	C148.159332,93.082306 147.779022,87.455978 147.779022,81.574005 
	C142.762741,81.574005 138.283478,81.578186 133.804214,81.573143 
	C124.433388,81.562584 122.255783,79.419571 122.250542,70.208458 
	C122.247925,65.612129 122.250084,61.015797 122.250084,56.054688 
	C116.850555,56.054688 112.055672,55.952694 107.266991,56.081459 
	C101.745049,56.229942 99.008484,58.940670 98.954239,64.470528 
	C98.849815,75.114586 98.860367,85.760780 98.939117,96.405220 
	C98.981789,102.174271 101.776962,104.925140 107.533371,104.987564 
	C114.518394,105.063316 121.504845,105.007797 129.485870,105.009521 
M203.014008,87.477409 
	C203.009933,79.823448 202.993408,72.169464 203.006454,64.515533 
	C203.014420,59.831486 200.757706,56.621033 196.154617,56.208820 
	C190.758713,55.725616 185.286407,56.095753 179.585922,56.095753 
	C179.585922,61.824245 179.665802,66.974884 179.566177,72.122047 
	C179.434509,78.926178 176.931168,81.422623 170.131226,81.543083 
	C164.876282,81.636177 159.618332,81.561668 154.016388,81.561668 
	C154.016388,87.307877 153.846024,92.446770 154.067490,97.568718 
	C154.263000,102.090683 157.214981,104.911591 161.842743,104.964188 
	C172.989426,105.090881 184.139557,105.093262 195.286163,104.962891 
	C199.820358,104.909859 202.692123,101.975883 202.965591,97.449074 
	C203.145905,94.464684 203.008911,91.461128 203.014008,87.477409 
M221.098999,157.546997 
	C221.097931,156.047287 221.103134,154.547562 221.094757,153.047882 
	C221.050232,145.087677 217.676849,140.989029 210.373978,140.016281 
	C199.773834,138.604340 193.751480,141.759583 191.401611,150.332809 
	C194.332870,150.785507 197.222504,151.231781 200.112137,151.678040 
	C199.998947,151.130981 199.885773,150.583923 199.772598,150.036865 
	C202.592255,149.125687 205.452911,147.471252 208.213943,147.623489 
	C209.552139,147.697266 210.703568,151.158203 211.868317,152.974548 
	C205.428528,155.059143 200.079102,156.334137 195.138031,158.528564 
	C190.855759,160.430420 188.765839,164.333298 189.487030,169.209991 
	C190.222687,174.184509 193.125366,177.936218 198.072174,178.252060 
	C202.604797,178.541443 207.244843,177.148270 212.170929,176.449173 
	C214.257645,180.097504 218.437683,177.278000 221.098938,177.739517 
	C221.098938,171.133713 221.098938,164.831909 221.098999,157.546997 
M166.659958,154.070663 
	C165.433899,147.001404 162.466827,141.307617 154.614609,140.074371 
	C147.735901,138.994019 141.694809,140.491058 137.584503,146.749222 
	C132.907654,153.869995 132.891647,164.765915 137.659683,171.854996 
	C141.374466,177.378113 146.706375,179.724258 153.164886,178.674362 
	C159.738785,177.605698 164.726349,174.214966 166.955643,167.265259 
	C162.373260,166.737656 158.040207,164.405777 154.913849,169.953308 
	C154.289749,171.060745 149.725403,171.353745 148.294861,170.275345 
	C146.075989,168.602631 144.988464,165.429153 142.745743,161.798203 
	C151.787964,161.798203 159.202057,161.798203 166.805313,161.798203 
	C166.805313,159.165787 166.805313,157.044510 166.659958,154.070663 
M86.952240,167.200104 
	C85.304268,170.764587 82.484756,172.336609 78.844772,170.863434 
	C75.082474,169.340775 73.820076,166.078751 74.148331,161.534485 
	C81.878777,161.534485 89.261055,161.534485 97.114326,161.534485 
	C96.605316,157.646317 96.477074,154.298599 95.683556,151.116791 
	C94.202858,145.179550 90.646866,140.988327 84.279404,140.058304 
	C77.619987,139.085617 71.679047,140.376251 67.548965,146.323151 
	C62.606586,153.439697 62.628819,165.208313 67.596809,172.265167 
	C71.310417,177.540207 77.457138,179.973190 83.787292,178.514389 
	C89.943268,177.095734 94.613342,173.940704 96.615173,166.962921 
	C93.185371,166.779419 90.245941,166.622162 86.952240,167.200104 
M236.382843,178.033463 
	C237.271210,176.882187 238.881622,175.759079 238.927856,174.574936 
	C239.180923,168.093109 239.022842,161.596130 239.061249,155.104706 
	C239.084732,151.135483 241.979767,147.903412 245.608917,147.930695 
	C250.395294,147.966705 249.979492,151.639221 250.013397,154.751190 
	C250.096329,162.363617 250.040451,169.977554 250.040451,177.755173 
	C253.559219,177.755173 256.611298,177.755173 259.962769,177.755173 
	C259.962769,168.195480 260.233673,158.896500 259.878113,149.621552 
	C259.587097,142.030319 253.455704,138.081421 246.188309,140.405823 
	C243.866653,141.148376 241.729019,142.466339 239.770462,143.396057 
	C236.944992,138.427109 232.829453,141.383118 229.292511,140.900085 
	C229.292511,153.494766 229.292511,165.572906 229.292511,178.025314 
	C231.508087,178.025314 233.469513,178.025314 236.382843,178.033463 
M118.084671,159.548584 
	C117.584351,161.666550 117.084038,163.784515 116.583725,165.902481 
	C116.270065,165.905472 115.956406,165.908463 115.642738,165.911453 
	C113.632141,157.615311 111.621536,149.319168 109.594414,140.954865 
	C106.189911,140.954865 102.971565,140.954865 99.246254,140.954865 
	C102.941803,152.917419 106.394623,164.465057 110.110275,175.927475 
	C111.471565,180.126923 115.273285,177.578430 117.887848,177.838043 
	C119.186623,177.966995 121.472992,176.412750 121.949829,175.118057 
	C123.951370,169.683517 125.440735,164.060181 127.112350,158.504379 
	C128.857559,152.703934 130.596664,146.901627 132.477737,140.636230 
	C130.557144,140.636230 129.372437,140.828735 128.273834,140.602692 
	C123.666634,139.654770 121.768837,141.712585 121.123207,146.138153 
	C120.503273,150.387573 119.240112,154.543182 118.084671,159.548584 
M173.688553,175.055283 
	C175.295914,181.776978 180.192535,176.096390 183.380844,178.477249 
	C183.380844,160.497833 183.380844,143.421173 183.380844,126.326927 
	C180.032410,126.326927 176.983017,126.326927 173.687363,126.326927 
	C173.687363,142.495087 173.687363,158.313919 173.688553,175.055283 
M48.001736,131.621552 
	C48.001736,146.999695 48.001736,162.377823 48.001736,177.668259 
	C51.676872,177.668259 54.725079,177.668259 57.668015,177.668259 
	C57.668015,160.294479 57.668015,143.273438 57.668015,126.174492 
	C54.424938,126.174492 51.489613,126.174492 48.245331,126.174492 
	C48.158901,127.767342 48.080643,129.209564 48.001736,131.621552 
M187.223602,218.742538 
	C187.223602,229.347733 187.223602,239.952927 187.223602,250.700211 
	C190.809174,250.700211 193.859299,250.700211 196.851105,250.700211 
	C196.851105,238.170990 196.851105,225.959839 196.851105,213.684326 
	C193.565979,213.684326 190.643692,213.684326 187.447937,213.684326 
	C187.364136,215.236404 187.294647,216.523544 187.223602,218.742538 
M135.571350,198.950607 
	C133.849304,198.950607 132.127258,198.950607 130.450287,198.950607 
	C130.450287,202.369415 130.450287,204.956635 130.450287,207.800491 
	C133.729340,207.800491 136.769516,207.800491 140.266846,207.800491 
	C140.266846,205.812469 140.096237,204.021683 140.304276,202.276047 
	C140.675308,199.162750 139.038574,198.623138 135.571350,198.950607 
M188.848862,208.038788 
	C191.576355,208.038788 194.303833,208.038788 196.879395,208.038788 
	C196.879395,204.658661 196.879395,201.942947 196.879395,199.337982 
	C193.516571,199.337982 190.499023,199.337982 186.917374,199.337982 
	C187.297424,202.454712 187.625381,205.144272 188.848862,208.038788 
z"/>
<path fill="#0968A7" opacity="1.000000" stroke="none" 
	d="
M198.531342,1.000000 
	C202.620987,4.501385 203.244659,8.823860 203.093796,13.675864 
	C202.814835,22.646696 203.052521,31.632627 203.002167,40.611858 
	C202.965317,47.184738 200.193481,49.891716 193.529846,49.958759 
	C189.076401,50.003571 184.622131,49.967278 179.609558,49.967278 
	C179.609558,46.058647 179.606766,42.618172 179.610046,39.177708 
	C179.623413,25.156008 178.771088,24.317179 164.506058,24.321650 
	C161.200577,24.322685 157.895096,24.321800 154.059784,24.321800 
	C154.059784,18.584572 153.631683,13.096440 154.266953,7.734288 
	C154.527161,5.537813 157.084732,3.613510 158.798615,1.282696 
	C172.020889,1.000000 185.041794,1.000000 198.531342,1.000000 
z"/>
<path fill="#0A68A7" opacity="1.000000" stroke="none" 
	d="
M142.531342,1.000000 
	C146.880875,3.497638 148.279922,7.056294 147.986069,11.615333 
	C147.731171,15.569676 147.933044,19.553461 147.933044,24.329063 
	C142.548096,24.329063 137.474686,24.279089 132.402618,24.340788 
	C124.807076,24.433180 122.330399,26.986675 122.248245,34.681484 
	C122.198532,39.338257 122.173317,43.995319 122.108612,48.651855 
	C122.104652,48.936562 121.849770,49.217785 121.507820,49.917938 
	C116.421036,49.917938 111.111702,50.228321 105.857811,49.821903 
	C101.480911,49.483326 98.988991,46.567593 98.955650,42.097176 
	C98.872482,30.947456 98.664330,19.785194 99.142662,8.655311 
	C99.247452,6.216970 102.000900,3.892458 103.767288,1.257762 
	C116.687561,1.000000 129.375122,1.000000 142.531342,1.000000 
z"/>
<path fill="#33332E" opacity="1.000000" stroke="none" 
	d="
M1.000000,144.467606 
	C2.567565,140.786987 3.880756,137.416534 5.752784,134.391968 
	C10.430765,126.833916 18.320271,123.797455 27.332533,125.752434 
	C35.689369,127.565231 40.250656,132.698975 41.777325,142.396713 
	C38.745567,142.831039 35.711514,143.265701 32.397030,143.740524 
	C31.957026,142.567596 31.523098,141.528107 31.174429,140.460754 
	C29.800142,136.253799 27.170027,133.550125 22.519184,133.580154 
	C17.897718,133.609985 15.290050,136.383667 13.760649,140.467194 
	C11.092898,147.590134 11.183188,154.836380 13.169850,162.028519 
	C14.429166,166.587509 16.964260,170.355774 22.356968,170.462585 
	C27.488636,170.564194 30.106495,167.339417 31.490191,162.788239 
	C31.720848,162.029572 32.094028,161.314240 32.468761,160.417587 
	C35.670925,160.817642 38.722641,161.198914 41.772903,161.579987 
	C40.394650,171.058563 35.613277,176.470047 27.364428,178.295990 
	C18.642395,180.226654 10.642449,177.294769 6.024350,170.106873 
	C4.250621,167.346130 3.124510,164.169327 1.351654,161.091049 
	C1.000000,155.645065 1.000000,150.290146 1.000000,144.467606 
z"/>
<path fill="#34332F" opacity="1.000000" stroke="none" 
	d="
M301.000000,177.666672 
	C292.385315,178.092270 292.385315,178.092270 290.414337,175.549927 
	C279.511475,183.190994 268.304047,177.311203 267.215576,163.797913 
	C266.824707,158.944946 267.085388,153.694962 268.556122,149.109680 
	C271.452057,140.081024 279.649231,137.695374 288.022766,142.637695 
	C288.397614,142.858948 288.891815,142.877960 289.738586,143.096542 
	C289.738586,137.453156 289.738586,132.054581 289.738586,126.326096 
	C293.137451,126.326096 296.183990,126.326096 300.260773,126.326096 
	C300.260773,142.784271 300.260773,159.170425 300.630371,175.778290 
	C301.000000,176.444443 301.000000,176.888901 301.000000,177.666672 
M289.848572,153.178467 
	C288.943970,149.349182 286.271606,147.636292 282.604248,147.854965 
	C278.683960,148.088715 277.365936,151.314514 277.139618,154.486328 
	C276.873596,158.214996 277.102844,162.070648 277.783264,165.748016 
	C278.398895,169.075150 281.192871,171.283798 284.372589,169.927963 
	C286.635193,168.963196 288.934479,166.292221 289.639191,163.914902 
	C290.541138,160.872177 289.857086,157.359344 289.848572,153.178467 
z"/>
<path fill="#33332E" opacity="1.000000" stroke="none" 
	d="
M82.449982,252.000000 
	C65.229637,242.600998 59.896030,222.875153 69.903839,207.263519 
	C74.744713,199.712036 82.970192,196.561508 92.056648,198.778549 
	C100.159683,200.755630 104.902992,206.338303 105.818916,215.389252 
	C102.791695,215.792175 99.744064,216.197800 96.419350,216.640320 
	C94.936272,211.096161 92.825546,206.160797 86.027191,206.512268 
	C80.975334,206.773422 77.329926,210.840500 76.596870,218.853226 
	C76.079689,224.506317 76.846779,230.405411 77.903854,236.032486 
	C78.719879,240.376419 81.786407,243.356216 86.750778,243.344940 
	C91.739418,243.333603 94.155159,240.213593 95.611465,235.955154 
	C95.874611,235.185715 96.133652,234.414871 96.491478,233.358673 
	C99.610260,233.726532 102.677147,234.088257 105.719460,234.447098 
	C105.338371,243.270081 100.405174,248.930618 91.143715,251.660736 
	C88.299988,252.000000 85.599968,252.000000 82.449982,252.000000 
z"/>
<path fill="#34352F" opacity="1.000000" stroke="none" 
	d="
M150.428467,252.000000 
	C149.407669,250.950287 148.311523,249.905914 148.300308,248.850021 
	C148.177094,237.262848 148.223007,225.673889 148.223007,214.168533 
	C155.579834,212.496597 157.312958,212.887360 158.532684,215.995529 
	C161.985077,214.916306 165.340942,213.301392 168.834747,212.906326 
	C174.214279,212.298050 178.583313,215.681671 178.860794,220.998108 
	C179.353134,230.430969 179.144699,239.902451 179.093185,249.357010 
	C179.089798,249.980240 177.933640,250.597229 177.156845,251.608551 
	C174.958328,252.000000 172.916672,252.000000 170.345642,251.588715 
	C169.600388,243.265839 169.417587,235.353104 169.151276,227.443192 
	C169.053146,224.528214 169.595932,221.055145 165.071152,220.895889 
	C161.441147,220.768158 158.243408,223.939087 158.205124,227.771637 
	C158.140411,234.250504 158.329422,240.735840 158.086899,247.206268 
	C158.026123,248.827988 156.728958,250.403351 156.000000,252.000000 
	C154.285645,252.000000 152.571289,252.000000 150.428467,252.000000 
z"/>
<path fill="#34342F" opacity="1.000000" stroke="none" 
	d="
M216.437500,252.000000 
	C203.310379,244.825790 199.352219,230.412613 207.019943,219.300217 
	C210.816895,213.797516 217.280258,211.491821 224.228745,213.161285 
	C230.057312,214.561691 234.078110,219.163483 234.939316,225.627258 
	C232.353088,226.022614 229.759674,226.419083 227.304871,226.794342 
	C226.860565,226.536011 226.394455,226.426682 226.332855,226.204971 
	C225.372681,222.749054 223.772308,219.735291 219.633759,220.147583 
	C215.222794,220.587006 214.352142,224.268158 213.986130,227.835388 
	C213.699402,230.629730 213.669769,233.498688 213.953384,236.291092 
	C214.308517,239.787384 214.880066,243.461868 219.330856,244.203674 
	C222.751358,244.773758 224.210815,243.451904 226.696564,237.766357 
	C229.319260,238.061859 232.065231,238.371262 234.801987,238.679611 
	C234.180908,245.639938 230.610336,249.472763 223.165985,251.676239 
	C220.958328,252.000000 218.916672,252.000000 216.437500,252.000000 
z"/>
<path fill="#32312D" opacity="1.000000" stroke="none" 
	d="
M112.444168,252.000000 
	C112.036766,243.201660 112.087593,234.403351 112.106308,225.604965 
	C112.124649,216.984299 112.110306,208.363541 112.110306,199.357452 
	C115.358276,199.357452 118.403732,199.357452 122.082649,199.357452 
	C122.082649,203.781845 122.082840,208.363907 122.082603,212.945984 
	C122.082016,224.238861 122.146210,235.532578 122.001213,246.823593 
	C121.982338,248.293671 120.886009,249.749908 120.144371,251.606277 
	C117.629440,252.000000 115.258888,252.000000 112.444168,252.000000 
z"/>
<path fill="#373732" opacity="1.000000" stroke="none" 
	d="
M130.444168,252.000000 
	C130.000000,239.385666 130.000000,226.771332 130.000000,213.776428 
	C133.576263,213.776428 136.640274,213.776428 140.258011,213.776428 
	C140.258011,225.690750 140.286682,237.618835 140.171799,249.545547 
	C140.166168,250.130722 138.905533,250.703796 138.114655,251.641251 
	C135.629440,252.000000 133.258896,252.000000 130.444168,252.000000 
z"/>
<path fill="#F9F9F9" opacity="1.000000" stroke="none" 
	d="
M156.464661,252.000000 
	C156.728958,250.403351 158.026123,248.827988 158.086899,247.206268 
	C158.329422,240.735840 158.140411,234.250504 158.205124,227.771637 
	C158.243408,223.939087 161.441147,220.768158 165.071152,220.895889 
	C169.595932,221.055145 169.053146,224.528214 169.151276,227.443192 
	C169.417587,235.353104 169.600388,243.265839 169.908142,251.588715 
	C165.643097,252.000000 161.286194,252.000000 156.464661,252.000000 
z"/>
<path fill="#11693D" opacity="1.000000" stroke="none" 
	d="
M128.988281,105.009300 
	C121.504845,105.007797 114.518394,105.063316 107.533371,104.987564 
	C101.776962,104.925140 98.981789,102.174271 98.939117,96.405220 
	C98.860367,85.760780 98.849815,75.114586 98.954239,64.470528 
	C99.008484,58.940670 101.745049,56.229942 107.266991,56.081459 
	C112.055672,55.952694 116.850555,56.054688 122.250084,56.054688 
	C122.250084,61.015797 122.247925,65.612129 122.250542,70.208458 
	C122.255783,79.419571 124.433388,81.562584 133.804214,81.573143 
	C138.283478,81.578186 142.762741,81.574005 147.779022,81.574005 
	C147.779022,87.455978 148.159332,93.082306 147.647400,98.626236 
	C147.297089,102.419899 144.538574,104.829178 140.462494,104.959915 
	C136.806854,105.077164 133.144989,105.000587 128.988281,105.009300 
z"/>
<path fill="#11693C" opacity="1.000000" stroke="none" 
	d="
M203.014008,87.971779 
	C203.008911,91.461128 203.145905,94.464684 202.965591,97.449074 
	C202.692123,101.975883 199.820358,104.909859 195.286163,104.962891 
	C184.139557,105.093262 172.989426,105.090881 161.842743,104.964188 
	C157.214981,104.911591 154.263000,102.090683 154.067490,97.568718 
	C153.846024,92.446770 154.016388,87.307877 154.016388,81.561668 
	C159.618332,81.561668 164.876282,81.636177 170.131226,81.543083 
	C176.931168,81.422623 179.434509,78.926178 179.566177,72.122047 
	C179.665802,66.974884 179.585922,61.824245 179.585922,56.095753 
	C185.286407,56.095753 190.758713,55.725616 196.154617,56.208820 
	C200.757706,56.621033 203.014420,59.831486 203.006454,64.515533 
	C202.993408,72.169464 203.009933,79.823448 203.014008,87.971779 
z"/>
<path fill="#34332E" opacity="1.000000" stroke="none" 
	d="
M221.098969,158.038559 
	C221.098938,164.831909 221.098938,171.133713 221.098938,177.739517 
	C218.437683,177.278000 214.257645,180.097504 212.170929,176.449173 
	C207.244843,177.148270 202.604797,178.541443 198.072174,178.252060 
	C193.125366,177.936218 190.222687,174.184509 189.487030,169.209991 
	C188.765839,164.333298 190.855759,160.430420 195.138031,158.528564 
	C200.079102,156.334137 205.428528,155.059143 211.868317,152.974548 
	C210.703568,151.158203 209.552139,147.697266 208.213943,147.623489 
	C205.452911,147.471252 202.592255,149.125687 199.772598,150.036865 
	C199.885773,150.583923 199.998947,151.130981 200.112137,151.678040 
	C197.222504,151.231781 194.332870,150.785507 191.401611,150.332809 
	C193.751480,141.759583 199.773834,138.604340 210.373978,140.016281 
	C217.676849,140.989029 221.050232,145.087677 221.094757,153.047882 
	C221.103134,154.547562 221.097931,156.047287 221.098969,158.038559 
M200.270020,170.633560 
	C207.886841,172.498596 212.206833,168.476868 210.378052,160.858627 
	C207.848831,161.524155 205.225601,161.954498 202.812637,162.913773 
	C199.652298,164.170166 198.047882,166.424179 200.270020,170.633560 
z"/>
<path fill="#363531" opacity="1.000000" stroke="none" 
	d="
M166.732635,154.496948 
	C166.805313,157.044510 166.805313,159.165787 166.805313,161.798203 
	C159.202057,161.798203 151.787964,161.798203 142.745743,161.798203 
	C144.988464,165.429153 146.075989,168.602631 148.294861,170.275345 
	C149.725403,171.353745 154.289749,171.060745 154.913849,169.953308 
	C158.040207,164.405777 162.373260,166.737656 166.955643,167.265259 
	C164.726349,174.214966 159.738785,177.605698 153.164886,178.674362 
	C146.706375,179.724258 141.374466,177.378113 137.659683,171.854996 
	C132.891647,164.765915 132.907654,153.869995 137.584503,146.749222 
	C141.694809,140.491058 147.735901,138.994019 154.614609,140.074371 
	C162.466827,141.307617 165.433899,147.001404 166.732635,154.496948 
M148.632477,155.294434 
	C151.387283,155.294434 154.142090,155.294434 156.922516,155.294434 
	C156.596008,149.778580 154.970428,147.400162 151.534073,147.149460 
	C147.961594,146.888840 146.088211,149.048325 145.067627,152.137695 
	C144.289261,154.493820 145.203110,155.585236 148.632477,155.294434 
z"/>
<path fill="#363530" opacity="1.000000" stroke="none" 
	d="
M87.129379,166.832504 
	C90.245941,166.622162 93.185371,166.779419 96.615173,166.962921 
	C94.613342,173.940704 89.943268,177.095734 83.787292,178.514389 
	C77.457138,179.973190 71.310417,177.540207 67.596809,172.265167 
	C62.628819,165.208313 62.606586,153.439697 67.548965,146.323151 
	C71.679047,140.376251 77.619987,139.085617 84.279404,140.058304 
	C90.646866,140.988327 94.202858,145.179550 95.683556,151.116791 
	C96.477074,154.298599 96.605316,157.646317 97.114326,161.534485 
	C89.261055,161.534485 81.878777,161.534485 74.148331,161.534485 
	C73.820076,166.078751 75.082474,169.340775 78.844772,170.863434 
	C82.484756,172.336609 85.304268,170.764587 87.129379,166.832504 
M81.469742,155.305573 
	C83.229729,155.305573 84.989716,155.305573 86.922394,155.305573 
	C86.589279,150.467194 85.131569,146.947388 80.279099,147.207336 
	C75.829216,147.445694 74.669632,150.930206 74.399368,155.305481 
	C76.646103,155.305481 78.601707,155.305481 81.469742,155.305573 
z"/>
<path fill="#31302B" opacity="1.000000" stroke="none" 
	d="
M235.906891,178.029388 
	C233.469513,178.025314 231.508087,178.025314 229.292511,178.025314 
	C229.292511,165.572906 229.292511,153.494766 229.292511,140.900085 
	C232.829453,141.383118 236.944992,138.427109 239.770462,143.396057 
	C241.729019,142.466339 243.866653,141.148376 246.188309,140.405823 
	C253.455704,138.081421 259.587097,142.030319 259.878113,149.621552 
	C260.233673,158.896500 259.962769,168.195480 259.962769,177.755173 
	C256.611298,177.755173 253.559219,177.755173 250.040451,177.755173 
	C250.040451,169.977554 250.096329,162.363617 250.013397,154.751190 
	C249.979492,151.639221 250.395294,147.966705 245.608917,147.930695 
	C241.979767,147.903412 239.084732,151.135483 239.061249,155.104706 
	C239.022842,161.596130 239.180923,168.093109 238.927856,174.574936 
	C238.881622,175.759079 237.271210,176.882187 235.906891,178.029388 
z"/>
<path fill="#33332E" opacity="1.000000" stroke="none" 
	d="
M118.172134,159.144287 
	C119.240112,154.543182 120.503273,150.387573 121.123207,146.138153 
	C121.768837,141.712585 123.666634,139.654770 128.273834,140.602692 
	C129.372437,140.828735 130.557144,140.636230 132.477737,140.636230 
	C130.596664,146.901627 128.857559,152.703934 127.112350,158.504379 
	C125.440735,164.060181 123.951370,169.683517 121.949829,175.118057 
	C121.472992,176.412750 119.186623,177.966995 117.887848,177.838043 
	C115.273285,177.578430 111.471565,180.126923 110.110275,175.927475 
	C106.394623,164.465057 102.941803,152.917419 99.246254,140.954865 
	C102.971565,140.954865 106.189911,140.954865 109.594414,140.954865 
	C111.621536,149.319168 113.632141,157.615311 115.642738,165.911453 
	C115.956406,165.908463 116.270065,165.905472 116.583725,165.902481 
	C117.084038,163.784515 117.584351,161.666550 118.172134,159.144287 
z"/>
<path fill="#373631" opacity="1.000000" stroke="none" 
	d="
M173.687958,174.594025 
	C173.687363,158.313919 173.687363,142.495087 173.687363,126.326927 
	C176.983017,126.326927 180.032410,126.326927 183.380844,126.326927 
	C183.380844,143.421173 183.380844,160.497833 183.380844,178.477249 
	C180.192535,176.096390 175.295914,181.776978 173.687958,174.594025 
z"/>
<path fill="#30302B" opacity="1.000000" stroke="none" 
	d="
M48.002060,131.136658 
	C48.080643,129.209564 48.158901,127.767342 48.245331,126.174492 
	C51.489613,126.174492 54.424938,126.174492 57.668015,126.174492 
	C57.668015,143.273438 57.668015,160.294479 57.668015,177.668259 
	C54.725079,177.668259 51.676872,177.668259 48.001736,177.668259 
	C48.001736,162.377823 48.001736,146.999695 48.002060,131.136658 
z"/>
<path fill="#363731" opacity="1.000000" stroke="none" 
	d="
M187.224380,218.276611 
	C187.294647,216.523544 187.364136,215.236404 187.447937,213.684326 
	C190.643692,213.684326 193.565979,213.684326 196.851105,213.684326 
	C196.851105,225.959839 196.851105,238.170990 196.851105,250.700211 
	C193.859299,250.700211 190.809174,250.700211 187.223602,250.700211 
	C187.223602,239.952927 187.223602,229.347733 187.224380,218.276611 
z"/>
<path fill="#353631" opacity="1.000000" stroke="none" 
	d="
M136.042328,198.962708 
	C139.038574,198.623138 140.675308,199.162750 140.304276,202.276047 
	C140.096237,204.021683 140.266846,205.812469 140.266846,207.800491 
	C136.769516,207.800491 133.729340,207.800491 130.450287,207.800491 
	C130.450287,204.956635 130.450287,202.369415 130.450287,198.950607 
	C132.127258,198.950607 133.849304,198.950607 136.042328,198.962708 
z"/>
<path fill="#353631" opacity="1.000000" stroke="none" 
	d="
M188.401093,207.936310 
	C187.625381,205.144272 187.297424,202.454712 186.917374,199.337982 
	C190.499023,199.337982 193.516571,199.337982 196.879395,199.337982 
	C196.879395,201.942947 196.879395,204.658661 196.879395,208.038788 
	C194.303833,208.038788 191.576355,208.038788 188.401093,207.936310 
z"/>
<path fill="#F8F8F7" opacity="1.000000" stroke="none" 
	d="
M289.852509,153.613770 
	C289.857086,157.359344 290.541138,160.872177 289.639191,163.914902 
	C288.934479,166.292221 286.635193,168.963196 284.372589,169.927963 
	C281.192871,171.283798 278.398895,169.075150 277.783264,165.748016 
	C277.102844,162.070648 276.873596,158.214996 277.139618,154.486328 
	C277.365936,151.314514 278.683960,148.088715 282.604248,147.854965 
	C286.271606,147.636292 288.943970,149.349182 289.852509,153.613770 
z"/>
<path fill="#F5F4F2" opacity="1.000000" stroke="none" 
	d="
M200.051147,170.287964 
	C198.047882,166.424179 199.652298,164.170166 202.812637,162.913773 
	C205.225601,161.954498 207.848831,161.524155 210.378052,160.858627 
	C212.206833,168.476868 207.886841,172.498596 200.051147,170.287964 
z"/>
<path fill="#F7F6F6" opacity="1.000000" stroke="none" 
	d="
M148.163055,155.293777 
	C145.203110,155.585236 144.289261,154.493820 145.067627,152.137695 
	C146.088211,149.048325 147.961594,146.888840 151.534073,147.149460 
	C154.970428,147.400162 156.596008,149.778580 156.922516,155.294434 
	C154.142090,155.294434 151.387283,155.294434 148.163055,155.293777 
z"/>
<path fill="#F4F3F3" opacity="1.000000" stroke="none" 
	d="
M81.013527,155.305527 
	C78.601707,155.305481 76.646103,155.305481 74.399368,155.305481 
	C74.669632,150.930206 75.829216,147.445694 80.279099,147.207336 
	C85.131569,146.947388 86.589279,150.467194 86.922394,155.305573 
	C84.989716,155.305573 83.229729,155.305573 81.013527,155.305527 
z"/>
</svg>